<?xml version="1.0" encoding="UTF-8"?>
<!DOCTYPE svg PUBLIC "-//W3C//DTD SVG 1.1//EN" "http://www.w3.org/Graphics/SVG/1.1/DTD/svg11.dtd">
<!-- Creator: CorelDRAW 2021 (64-Bit) -->
<svg xmlns="http://www.w3.org/2000/svg" xml:space="preserve" width="2.04635in" height="0.416669in" version="1.1" style="shape-rendering:geometricPrecision; text-rendering:geometricPrecision; image-rendering:optimizeQuality; fill-rule:evenodd; clip-rule:evenodd"
viewBox="0 0 1170.23 238.28"
 xmlns:xlink="http://www.w3.org/1999/xlink"
 xmlns:xodm="http://www.corel.com/coreldraw/odm/2003">
 <defs>
  <style type="text/css">
   <![CDATA[
    .fil1 {fill:white}
    .fil2 {fill:white;fill-opacity:0.501961}
    .fil0 {fill:url(#id0)}
   ]]>
  </style>
  <linearGradient id="id0" gradientUnits="userSpaceOnUse" x1="113.18" y1="-113.18" x2="-113.18" y2="119.14">
   <stop offset="0" style="stop-opacity:1; stop-color:#FF8945"/>
   <stop offset="1" style="stop-opacity:1; stop-color:#FF22A7"/>
  </linearGradient>
 </defs>
 <g id="Layer_x0020_1">
  <metadata id="CorelCorpID_0Corel-Layer"/>
  <path class="fil0" d="M178.71 0c32.9,0 59.57,26.67 59.57,59.57l0 119.14c0,32.9 -26.67,59.57 -59.57,59.57l-119.14 0c-32.9,0 -59.57,-26.67 -59.57,-59.57l0 -119.14c0,-32.9 26.67,-59.57 59.57,-59.57l119.14 0z"/>
  <path class="fil1" d="M160.01 132.55c-13.35,-21.67 -66.48,-31.5 -64.54,-56.36 1.51,-19.46 28.71,-17.57 28.71,-17.57 0,0 -42.75,-4.56 -48.7,26.11 -6.11,31.45 57.43,43.34 66.31,61.9 14.2,29.69 -31.21,32.54 -31.21,32.54 48.94,2.26 60.73,-28.29 49.44,-46.62z"/>
  <path class="fil2" d="M148.33 79.39c1.92,2.98 3.06,6.47 3.56,10.42 0.52,3.96 0.46,8.23 0.22,12.92 1.75,-1.65 3.04,-3.68 4.1,-5.82 1.03,-2.16 1.76,-4.49 2.13,-6.94 0.37,-2.45 0.36,-5.03 -0.13,-7.58 -0.5,-2.55 -1.47,-5.08 -2.9,-7.32 -1.43,-2.25 -3.27,-4.2 -5.33,-5.77 -0.35,-0.27 -0.71,-0.51 -1.07,-0.75 -0.17,-0.11 -0.34,-0.23 -0.51,-0.34 -0.1,-0.06 -0.19,-0.13 -0.29,-0.19 -0.17,-0.11 -0.34,-0.23 -0.52,-0.33l-0.84 -0.44c-0.18,-0.09 -0.35,-0.18 -0.53,-0.27 -0.38,-0.2 -0.76,-0.4 -1.15,-0.57l-1.73 -0.67c-3.16,-1.14 -6.41,-1.72 -9.64,-1.72 -1.52,0 -3.04,0.13 -4.55,0.38 1,0.68 1.99,1.29 2.99,1.83 0.97,0.6 1.93,1.18 2.88,1.72 0.57,0.37 1.14,0.72 1.71,1.06 0.35,0.22 0.7,0.43 1.05,0.65 0.37,0.27 0.75,0.51 1.12,0.75 0.5,0.32 1,0.64 1.45,1.01 1.69,1.16 3.16,2.45 4.53,3.74 1.34,1.31 2.46,2.74 3.43,4.22zm-57.13 91.25l1.73 0.67c3.16,1.14 6.4,1.72 9.64,1.72 1.52,0 3.04,-0.13 4.54,-0.38 -1,-0.68 -1.99,-1.29 -2.98,-1.83 -0.97,-0.6 -1.94,-1.18 -2.89,-1.72 -0.56,-0.36 -1.12,-0.7 -1.68,-1.04 -0.36,-0.23 -0.72,-0.45 -1.08,-0.67 -0.37,-0.27 -0.76,-0.52 -1.14,-0.76 -0.5,-0.32 -0.99,-0.63 -1.44,-1 -1.68,-1.16 -3.16,-2.45 -4.53,-3.74 -1.34,-1.31 -2.46,-2.74 -3.43,-4.23 -1.92,-2.98 -3.06,-6.47 -3.56,-10.42 -0.52,-3.96 -0.46,-8.23 -0.22,-12.92 -1.75,1.65 -3.04,3.68 -4.1,5.82 -1.03,2.16 -1.77,4.49 -2.14,6.94 -0.37,2.45 -0.35,5.03 0.14,7.58 0.49,2.55 1.47,5.08 2.9,7.32 1.42,2.25 3.27,4.2 5.32,5.77 0.35,0.26 0.7,0.49 1.06,0.73 0.18,0.12 0.36,0.24 0.53,0.36 0.11,0.07 0.21,0.14 0.32,0.21 0.16,0.11 0.32,0.21 0.48,0.31l0.84 0.44c0.21,0.11 0.42,0.21 0.62,0.32 0.35,0.18 0.7,0.36 1.06,0.53z"/>
  <path class="fil1" d="M340.07 164.56c17.64,0 29.24,-10.65 29.24,-24.98 0,-13.02 -8.17,-21.66 -21.78,-25.45l-9.83 -2.72c-6.86,-2.01 -10.65,-4.85 -10.53,-10.06 0.12,-4.97 4.85,-7.81 10.89,-7.81 4.97,0 10.53,2.6 12.43,9.71l17.05 0c-0.59,-12.55 -11.36,-25.57 -29.47,-25.57 -16.81,0 -28.29,9.35 -28.17,24.86 0.12,12.78 8.76,21.07 22.02,24.86l8.88 2.6c8.05,2.25 11.25,5.68 11.25,10.18 0,5.33 -5.09,8.52 -11.96,8.52 -7.46,0 -13.97,-4.03 -15.15,-11.6l-17.16 0c0.71,13.85 12.19,27.46 32.31,27.46zm62.5 -0.12c7.58,0 13.14,-3.31 16.22,-8.05l0 6.75 16.22 0 0 -59.19 -16.22 0 0 28.88c0,11.48 -4.97,16.81 -12.19,16.81 -6.98,0 -10.06,-5.21 -10.06,-14.08l0 -31.61 -16.22 0 0 34.33c0,15.74 7.93,26.16 22.25,26.16zm64.28 -7.93l0 31.37 -16.22 0 0 -83.92 16.22 0 0 6.63c2.72,-3.79 8.99,-7.93 17.16,-7.93 15.74,0 27.82,14.09 27.82,30.89 0,16.81 -12.07,30.89 -27.82,30.89 -8.17,0 -14.44,-4.14 -17.16,-7.93zm-1.3 -22.96c0,9.23 6.04,16.1 14.92,16.1 8.88,0 14.91,-6.86 14.91,-16.1 0,-9.23 -6.04,-16.1 -14.91,-16.1 -8.88,0 -14.92,6.86 -14.92,16.1zm115.65 10.3c-3.55,11.96 -15.27,20.6 -30.3,20.6 -18.11,0 -31.01,-13.02 -31.01,-31.01 0,-17.64 13.14,-30.77 31.13,-30.77 17.4,0 31.72,12.43 30.89,34.68l-46.16 0c0.71,6.98 5.92,13.02 15.98,13.02 5.68,0 10.65,-2.49 12.55,-6.51l16.93 0zm-44.86 -17.16l27.82 0c-2.01,-7.93 -8.05,-10.89 -13.61,-10.89 -7.46,0 -12.66,4.38 -14.2,10.89zm73.62 36.46l0 -28.29c0,-9.71 5.09,-15.74 12.78,-15.74 2.61,0 4.85,0.47 7.34,1.3l0 -16.45c-2.01,-0.59 -3.79,-0.71 -5.45,-0.71 -6.62,0 -12.66,4.38 -14.68,10.18l0 -9.47 -16.21 0 0 59.19 16.21 0zm49.25 -19.18l-8.17 19.18 -17.75 0 36.22 -84.04 15.27 0 36.34 84.04 -17.99 0 -8.17 -19.18 -35.75 0zm17.87 -42.38l-11.6 27.34 23.2 0 -11.6 -27.34zm68.07 61.55l0 -28.88c0,-11.36 5.68,-16.81 13.13,-16.81 6.75,0 10.42,5.21 10.42,13.73l0 31.96 16.21 0 0 -34.68c0,-15.39 -8.52,-25.8 -22.84,-25.8 -7.69,0 -13.85,3.31 -16.92,8.05l0 -6.75 -16.21 0 0 59.19 16.21 0zm70.9 0l0 -28.88c0,-11.36 5.68,-16.81 13.14,-16.81 6.75,0 10.42,5.21 10.42,13.73l0 31.96 16.21 0 0 -34.68c0,-15.39 -8.52,-25.8 -22.85,-25.8 -7.7,0 -13.85,3.31 -16.93,8.05l0 -6.75 -16.21 0 0 59.19 16.21 0zm113.04 -29.59c0,17.28 -13.97,30.89 -31.13,30.89 -17.16,0 -31.13,-13.61 -31.13,-30.89 0,-17.28 13.97,-30.89 31.13,-30.89 17.16,0 31.13,13.61 31.13,30.89zm-45.93 0c0,9.11 6.27,15.74 14.8,15.74 8.53,0 14.68,-6.63 14.68,-15.74 0,-9.11 -6.15,-15.74 -14.68,-15.74 -8.52,0 -14.8,6.63 -14.8,15.74zm84.99 30.3c4.5,0 7.7,-0.47 10.3,-1.3l0 -14.32c-1.9,0.71 -4.02,1.06 -6.63,1.06 -6.98,0 -10.06,-2.84 -10.06,-10.06l0 -21.07 16.69 0 0 -14.2 -16.69 0 0 -16.45 -16.21 0 0 16.45 -11.96 0 0 14.2 11.96 0 0 24.27c0,14.44 10.06,21.42 22.61,21.42zm62.15 -7.34c-2.6,3.79 -8.88,7.93 -17.05,7.93 -15.74,0 -27.81,-14.08 -27.81,-30.89 0,-16.81 12.07,-30.89 27.81,-30.89 8.17,0 14.45,4.14 17.05,7.93l0 -6.63 16.21 0 0 59.19 -16.21 0 0 -6.63zm-28.53 -22.96c0,9.23 6.04,16.1 14.92,16.1 8.88,0 14.91,-6.86 14.91,-16.1 0,-9.23 -6.03,-16.1 -14.91,-16.1 -8.88,0 -14.92,6.86 -14.92,16.1zm89.13 30.3c4.5,0 7.69,-0.47 10.29,-1.3l0 -14.32c-1.9,0.71 -4.02,1.06 -6.62,1.06 -6.99,0 -10.06,-2.84 -10.06,-10.06l0 -21.07 16.69 0 0 -14.2 -16.69 0 0 -16.45 -16.22 0 0 16.45 -11.96 0 0 14.2 11.96 0 0 24.27c0,14.44 10.06,21.42 22.61,21.42zm78.6 -20c-3.55,11.96 -15.27,20.6 -30.3,20.6 -18.11,0 -31.01,-13.02 -31.01,-31.01 0,-17.64 13.13,-30.77 31.13,-30.77 17.4,0 31.72,12.43 30.89,34.68l-46.17 0c0.71,6.98 5.92,13.02 15.98,13.02 5.68,0 10.65,-2.49 12.55,-6.51l16.93 0zm-44.86 -17.16l27.81 0c-2.01,-7.93 -8.05,-10.89 -13.61,-10.89 -7.46,0 -12.66,4.38 -14.2,10.89z"/>
 </g>
</svg>
